<?xml version="1.0" standalone="no"?>
<!DOCTYPE svg PUBLIC "-//W3C//DTD SVG 20010904//EN"
 "http://www.w3.org/TR/2001/REC-SVG-20010904/DTD/svg10.dtd">
<svg version="1.0" xmlns="http://www.w3.org/2000/svg"
 width="848.000000pt" height="848.000000pt" viewBox="0 0 848.000000 848.000000"
 preserveAspectRatio="xMidYMid meet">
<metadata>
Created by potrace 1.14, written by Peter Selinger 2001-2017
</metadata>
<g transform="translate(0.000000,848.000000) scale(0.100000,-0.100000)"
fill="#000000" stroke="none">
<path d="M2809 8006 c-2 -2 -33 -7 -69 -10 -119 -12 -200 -23 -230 -31 -8 -2
-28 -7 -45 -10 -16 -2 -40 -7 -52 -10 -13 -3 -31 -7 -41 -9 -9 -2 -37 -9 -62
-16 -25 -7 -49 -13 -55 -14 -55 -12 -280 -95 -380 -141 -33 -15 -62 -27 -64
-26 -2 2 -7 -1 -10 -6 -3 -4 -40 -25 -81 -47 -41 -21 -82 -44 -90 -51 -8 -6
-37 -24 -65 -40 -42 -24 -104 -67 -200 -139 -139 -104 -336 -296 -457 -447
-20 -26 -53 -54 -73 -63 -79 -38 -235 -166 -235 -194 0 -5 -6 -12 -13 -15 -8
-3 -22 -20 -31 -39 -9 -18 -28 -52 -41 -75 -13 -24 -21 -43 -18 -43 3 0 1 -6
-4 -12 -6 -7 -13 -29 -17 -48 -3 -19 -8 -46 -11 -60 -8 -36 -8 -106 0 -170 5
-42 2 -69 -13 -110 -19 -53 -43 -134 -43 -145 0 -2 -6 -23 -14 -45 -8 -22 -12
-40 -8 -40 3 0 1 -6 -5 -12 -6 -7 -10 -15 -10 -18 0 -4 -5 -47 -17 -120 0 -3
-3 -9 -6 -15 -4 -5 -6 -22 -5 -37 1 -16 -1 -28 -4 -28 -3 0 -6 -8 -6 -17 0
-10 -4 -49 -9 -88 -17 -140 -10 -569 11 -675 3 -14 6 -44 8 -66 2 -23 8 -57
14 -75 6 -19 13 -50 16 -69 5 -34 8 -47 40 -160 48 -173 137 -385 236 -565 50
-92 171 -275 181 -275 5 0 8 -4 6 -9 -1 -5 9 -22 23 -38 14 -16 41 -49 59 -73
43 -56 101 -118 210 -227 46 -46 82 -85 80 -87 -2 -2 -20 -11 -39 -21 -41 -21
-148 -85 -170 -102 -8 -7 -39 -29 -68 -51 -71 -53 -164 -135 -220 -195 -26
-28 -54 -57 -64 -66 -18 -18 -65 -76 -88 -111 -8 -12 -19 -28 -25 -34 -33 -37
-110 -167 -151 -256 -34 -72 -82 -217 -89 -266 -4 -21 -8 -46 -10 -54 -2 -8
-7 -34 -10 -57 -4 -31 -23 -65 -68 -125 -142 -189 -208 -395 -202 -632 3 -164
29 -277 90 -406 29 -61 75 -142 84 -150 3 -3 20 -23 36 -45 116 -155 304 -286
500 -348 109 -34 160 -41 300 -41 127 -1 218 10 275 31 8 3 23 8 33 10 18 3
71 26 155 65 116 55 283 199 364 313 79 114 134 235 164 363 19 83 24 128 25
228 1 71 -2 105 -17 189 -9 51 -27 121 -34 130 -4 6 -13 31 -20 57 -7 27 -17
48 -23 48 -6 0 -8 3 -4 6 3 3 -17 44 -45 92 l-51 86 35 30 c146 130 278 207
378 219 13 2 15 -48 15 -392 l1 -394 -27 -42 c-30 -48 -78 -173 -77 -202 0
-10 -3 -36 -7 -58 -22 -115 -4 -235 49 -340 57 -112 199 -225 317 -252 19 -4
194 -8 389 -8 l355 0 76 31 c42 17 84 37 94 45 24 19 118 114 130 130 45 62
71 127 82 209 4 25 7 294 7 598 0 303 2 552 4 552 2 0 34 -14 70 -31 37 -17
109 -45 160 -62 l94 -32 44 -68 c24 -37 44 -71 44 -75 1 -4 14 -23 30 -42 17
-19 30 -40 30 -47 0 -7 5 -13 10 -13 20 0 9 -22 -28 -58 -111 -106 -162 -246
-165 -452 -3 -240 134 -427 368 -501 28 -9 116 -13 295 -13 249 0 257 1 328
26 39 14 72 22 72 18 0 -8 26 -40 67 -84 24 -24 133 -99 133 -90 0 3 6 2 13
-4 6 -5 41 -17 76 -26 54 -14 122 -16 419 -16 410 1 440 5 577 71 107 51 210
159 256 266 49 115 57 172 56 404 -1 124 -5 219 -10 219 -6 0 -6 5 -1 13 5 6
9 23 7 37 -1 14 -4 59 -7 100 -3 41 -8 94 -11 118 -3 23 -7 63 -11 90 -5 46
-39 193 -51 222 -3 8 -7 17 -7 20 -1 3 -12 30 -24 61 l-23 57 29 83 c17 46 46
127 64 179 19 52 35 98 36 103 1 4 8 31 17 61 9 29 18 63 20 75 3 11 7 31 10
43 13 54 25 121 30 170 3 29 8 67 11 83 12 68 5 344 -11 451 l-6 42 58 -14
c67 -17 213 -19 261 -5 17 5 32 8 32 6 0 -7 123 45 169 71 63 37 170 147 208
214 17 30 41 85 54 122 21 63 23 66 53 64 17 -1 50 3 73 10 23 6 44 9 47 6 4
-3 6 -1 6 4 0 5 9 10 20 11 38 3 149 73 207 131 101 100 150 216 158 372 2 52
8 115 11 140 4 25 8 59 9 75 5 58 88 265 106 265 5 0 9 6 9 13 0 16 38 62 119
145 79 82 94 113 79 171 -12 49 -56 82 -123 96 -22 5 -44 9 -50 11 -5 1 -28 5
-50 8 -23 4 -52 9 -65 12 -42 9 -272 12 -330 4 -124 -18 -202 -38 -278 -72
-26 -12 -50 -21 -54 -20 -5 1 -8 -3 -8 -8 0 -6 -5 -10 -11 -10 -22 0 -148 -93
-201 -148 -30 -31 -73 -84 -95 -117 -76 -113 -122 -237 -149 -406 -14 -81 -9
-210 9 -284 3 -11 7 -26 9 -34 6 -28 54 -119 78 -151 29 -38 112 -120 122
-120 4 0 13 -6 20 -12 8 -7 22 -18 33 -24 27 -15 26 -38 -5 -100 -40 -79 -103
-142 -180 -178 -55 -26 -76 -30 -140 -30 -90 1 -118 7 -179 39 -76 39 -105 74
-171 200 -34 66 -66 122 -71 123 -5 2 -9 8 -9 14 0 22 -138 173 -217 239 -40
32 -139 97 -188 121 -53 27 -198 78 -221 78 -19 0 -19 0 19 77 18 38 34 71 35
76 0 4 11 29 23 55 11 26 22 52 23 57 2 6 9 24 15 40 7 17 14 37 16 45 2 8 18
53 35 100 52 141 121 409 154 595 3 17 8 39 10 50 2 11 7 47 11 80 4 33 9 76
11 95 27 220 38 496 21 543 -13 40 -25 52 -68 69 -38 15 -84 11 -115 -12 -11
-8 -40 -44 -64 -80 -130 -195 -298 -351 -421 -392 -93 -32 -193 -3 -234 66
-27 44 -42 114 -40 191 1 60 5 95 20 175 10 55 62 215 96 295 7 17 13 32 13
35 3 16 144 291 178 347 47 79 177 276 187 283 3 3 26 32 51 65 24 33 49 65
55 71 5 7 33 38 60 70 77 89 258 260 285 269 20 7 58 64 63 95 8 50 -21 102
-71 129 -16 8 -452 11 -1700 11 -924 0 -1681 -2 -1683 -4z m3637 -4966 c0 -16
-3 -30 -8 -30 -7 0 -6 36 1 58 4 10 7 -3 7 -28z m-11 -102 c-8 -45 -14 -47
-12 -4 1 20 5 36 10 36 4 0 5 -14 2 -32z"/>
<path d="M6767 7744 c-43 -7 -86 -16 -95 -20 -21 -9 -20 -9 -56 -19 -90 -25
-230 -121 -301 -206 -22 -27 -79 -111 -80 -119 0 -3 -7 -16 -14 -28 -75 -135
-100 -398 -51 -527 43 -112 129 -208 232 -257 67 -33 98 -40 178 -44 122 -7
226 29 324 111 103 85 153 203 162 373 10 211 64 335 205 472 90 88 83 185
-16 226 -22 9 -49 18 -60 20 -11 2 -31 6 -45 9 -105 21 -278 25 -383 9z"/>
</g>
</svg>
